<?xml version="1.0" encoding="UTF-8"?>
<svg width="226px" height="219px" viewBox="0 0 226 219" version="1.1" xmlns="http://www.w3.org/2000/svg" xmlns:xlink="http://www.w3.org/1999/xlink">
    <title>Artboard Copy 2</title>
    <g id="Artboard-Copy-2" stroke="none" stroke-width="1" fill="none" fill-rule="evenodd">
        <g id="Group" transform="translate(12.000000, 62.000000)" fill="#FAFAFA">
            <path d="M23.8850651,57.093134 L44.0380281,92.0003613 C44.5902977,92.9569552 44.2625281,94.1801309 43.3059342,94.7324005 C43.0019022,94.907927 42.6570241,95.000334 42.3059615,95.000334 L2,95.000334 L2,95.000334 C0.8954305,95.000334 4.97379915e-14,94.1049035 4.97379915e-14,93.000334 C4.97379915e-14,92.6492606 0.092412529,92.3043724 0.267949192,92.000334 L20.4209327,57.0931326 C20.973203,56.1365391 22.1963789,55.8087704 23.1529725,56.3610408 C23.4570316,56.5365834 23.7095227,56.7890747 23.8850651,57.093134 Z M55.5388745,0.268283143 C55.8429129,0.443819806 56.0953886,0.696295531 56.2709253,1.00033395 L108.8098,92.000334 C109.362085,92.9569192 109.034334,94.1801 108.077749,94.7323848 C107.773711,94.9079214 107.428822,95.000334 107.077749,95.000334 L84.4534207,95.000334 C81.9525783,95.000334 79.6417019,93.6661592 78.3912663,91.5003745 L41.4938609,27.5931798 C40.2433571,25.427277 40.2434031,22.7587495 41.4939815,20.5928899 L52.8068237,1.00033395 L52.8068237,1.00033395 C53.3591084,0.0437487036 54.5822892,-0.284001607 55.5388745,0.268283143 Z" id="Shape"></path>
            <path d="M116.963148,57.093134 L137.116111,92.0003613 C137.668381,92.9569552 137.340611,94.1801309 136.384017,94.7324005 C136.079985,94.907927 135.735107,95.000334 135.384044,95.000334 L95.0780829,95.000334 L95.0780829,95.000334 C93.9735134,95.000334 93.0780829,94.1049035 93.0780829,93.000334 C93.0780829,92.6492606 93.1704955,92.3043724 93.3460321,92.000334 L113.499016,57.0931326 C114.051286,56.1365391 115.274462,55.8087704 116.231055,56.3610408 C116.535115,56.5365834 116.787606,56.7890747 116.963148,57.093134 Z M148.616957,0.268283143 C148.920996,0.443819806 149.173472,0.696295531 149.349008,1.00033395 L201.887883,92.000334 C202.440167,92.9569192 202.112417,94.1801 201.155832,94.7323848 C200.851794,94.9079214 200.506905,95.000334 200.155832,95.000334 L177.531504,95.000334 C175.030661,95.000334 172.719785,93.6661592 171.469349,91.5003745 L134.571944,27.5931798 C133.32144,25.427277 133.321486,22.7587495 134.572064,20.5928899 L145.884907,1.00033395 L145.884907,1.00033395 C146.437191,0.0437487036 147.660372,-0.284001607 148.616957,0.268283143 Z" id="Shape-Copy" transform="translate(147.617124, 47.500167) scale(-1, -1) translate(-147.617124, -47.500167) "></path>
        </g>
    </g>
</svg>